<svg width="32" height="32" viewBox="0 0 32 32" fill="none" xmlns="http://www.w3.org/2000/svg">
  <rect width="32" height="32" rx="4" fill="#FDCA40"/>
  <path d="M8.656 22V10.4H14.24C15.3867 10.4 16.3467 10.624 17.12 11.072C17.8933 11.5093 18.4693 12.1173 18.848 12.896C19.2267 13.664 19.416 14.5493 19.416 15.552C19.416 16.544 19.2267 17.4293 18.848 18.208C18.4693 18.976 17.8933 19.584 17.12 20.032C16.3467 20.4693 15.3867 20.688 14.24 20.688H10.536V22H8.656ZM10.536 19.04H14.144C14.9813 19.04 15.6747 18.8933 16.224 18.6C16.7733 18.296 17.1787 17.8747 17.44 17.336C17.712 16.7973 17.848 16.1867 17.848 15.488C17.848 14.8 17.712 14.1947 17.44 13.672C17.1787 13.1387 16.7733 12.7227 16.224 12.424C15.6747 12.1253 14.9813 11.976 14.144 11.976H10.536V19.04Z" fill="#111827"/>
  <path d="M22.8752 22.192C22.3259 22.192 21.8352 22.0293 21.4032 21.704C20.9712 21.3787 20.7552 20.9573 20.7552 20.44C20.7552 19.9227 20.9712 19.5067 21.4032 19.192C21.8352 18.8667 22.3259 18.704 22.8752 18.704C23.4032 18.704 23.8832 18.8667 24.3152 19.192C24.7472 19.5067 24.9632 19.9227 24.9632 20.44C24.9632 20.9573 24.7472 21.3787 24.3152 21.704C23.8832 22.0293 23.4032 22.192 22.8752 22.192Z" fill="#111827"/>
</svg> 